# xmcd
#
# Track frame offsets:
#	150
#	16643
#	26274
#	53811
#	67714
#	79276
#	98963
#	117592
#	130887
#	148510
#	159950
#	176159
#	195426
#	219046
#	238226
#	255993
#	273361
#	293806
#	305566
#	324358
#
# Disc length: 4474
#
# Revision: 4
# Processed by: cddbd v1.5.1PL0 Copyright (c) Steve Scherf et al.
# Submitted via: CDex 1.50Beta3
# Normalized: r3:DSETVAR1,TDELIM( - )
#
DISCID=0b117814
DTITLE=Various Artist - Lesson 2 Rock'n'Roll Teacher
DYEAR=1900
DGENRE=Rock and Roll
TTITLE0=Channel 5 - Alone on Friday
TTITLE1=Alvin Stardust - Jailhouse Rock
TTITLE2=Kenny Loggins - Mr Night
TTITLE3=Paul Hudson - Rockin at the hop
TTITLE4=Niko - Am weissen strand von Helgoland
TTITLE5=Toto - Straight for the heart
TTITLE6=After the fire - 1980 F
TTITLE7=Eddie Rabbit - Early sin the morning
TTITLE8=Gerry Raferty - Nothing ever happens down here
TTITLE9=Clarence Clemons - You're a friend of mine
TTITLE10=Commander Cody - Rockette
TTITLE11=Paul Young - The letter song
TTITLE12=Sawyer Brown - Lola's song
TTITLE13=Adriano Celentano - Quando
TTITLE14=Jennifer Rush - Nobody move
TTITLE15=Jerry Clip - Rock 'n' Roll city
TTITLE16=Carmel - You can have him
TTITLE17=Les Humphries Singers - To my father's house
TTITLE18=Wax - Right between the edge
TTITLE19=The Sweet - The Ballroom Blitz (Special Version)
EXTD=
EXTT0=
EXTT1=
EXTT2=
EXTT3=
EXTT4=
EXTT5=
EXTT6=
EXTT7=
EXTT8=
EXTT9=
EXTT10=
EXTT11=
EXTT12=
EXTT13=
EXTT14=
EXTT15=
EXTT16=
EXTT17=
EXTT18=
EXTT19=
PLAYORDER=
